<svg width="44" height="44" viewBox="0 0 44 44" fill="none" xmlns="http://www.w3.org/2000/svg">
<g filter="url(#filter0_d_1_191)">
<circle cx="21" cy="21" r="14" fill="white"/>
</g>
<path d="M21.8086 27H20.1826V17.4902H21.8086V27ZM20.0508 14.9678C20.0508 14.7041 20.1299 14.4814 20.2881 14.2998C20.4521 14.1182 20.6924 14.0273 21.0088 14.0273C21.3252 14.0273 21.5654 14.1182 21.7295 14.2998C21.8936 14.4814 21.9756 14.7041 21.9756 14.9678C21.9756 15.2314 21.8936 15.4512 21.7295 15.627C21.5654 15.8027 21.3252 15.8906 21.0088 15.8906C20.6924 15.8906 20.4521 15.8027 20.2881 15.627C20.1299 15.4512 20.0508 15.2314 20.0508 14.9678Z" fill="black"/>
<defs>
<filter id="filter0_d_1_191" x="0" y="0" width="44" height="44" filterUnits="userSpaceOnUse" color-interpolation-filters="sRGB">
<feFlood flood-opacity="0" result="BackgroundImageFix"/>
<feColorMatrix in="SourceAlpha" type="matrix" values="0 0 0 0 0 0 0 0 0 0 0 0 0 0 0 0 0 0 127 0" result="hardAlpha"/>
<feOffset dx="1" dy="1"/>
<feGaussianBlur stdDeviation="4"/>
<feColorMatrix type="matrix" values="0 0 0 0 0.339444 0 0 0 0 0.518793 0 0 0 0 0.783333 0 0 0 1 0"/>
<feBlend mode="normal" in2="BackgroundImageFix" result="effect1_dropShadow_1_191"/>
<feBlend mode="normal" in="SourceGraphic" in2="effect1_dropShadow_1_191" result="shape"/>
</filter>
</defs>
</svg>
